<mxfile host="Electron" modified="2024-12-19T14:24:11.614Z" agent="Mozilla/5.0 (Windows NT 10.0; Win64; x64) AppleWebKit/537.36 (KHTML, like Gecko) draw.io/24.1.0 Chrome/120.0.6099.109 Electron/28.1.0 Safari/537.36" etag="y92YUSmbCgEgl5I8_VeJ" version="24.1.0" type="device">
  <diagram name="Страница — 1" id="8kipEARYRJaFEadC1Kch">
    <mxGraphModel dx="1434" dy="836" grid="1" gridSize="10" guides="1" tooltips="1" connect="1" arrows="1" fold="1" page="1" pageScale="1" pageWidth="827" pageHeight="1169" math="0" shadow="0">
      <root>
        <mxCell id="0" />
        <mxCell id="1" parent="0" />
        <mxCell id="-2Qa8j6UVPZS23jxc8oc-122" value="" style="group" parent="1" vertex="1" connectable="0">
          <mxGeometry x="30" y="430" width="510" height="410" as="geometry" />
        </mxCell>
        <mxCell id="iDLWO89y0f_nf_CUgpw0-2" value="" style="rounded=0;whiteSpace=wrap;html=1;" vertex="1" parent="-2Qa8j6UVPZS23jxc8oc-122">
          <mxGeometry width="510" height="410" as="geometry" />
        </mxCell>
        <mxCell id="-2Qa8j6UVPZS23jxc8oc-103" value="Client" style="html=1;whiteSpace=wrap;" parent="-2Qa8j6UVPZS23jxc8oc-122" vertex="1">
          <mxGeometry x="70" y="10" width="110" height="50" as="geometry" />
        </mxCell>
        <mxCell id="-2Qa8j6UVPZS23jxc8oc-104" value="" style="html=1;points=[[0,0,0,0,5],[0,1,0,0,-5],[1,0,0,0,5],[1,1,0,0,-5]];perimeter=orthogonalPerimeter;outlineConnect=0;targetShapes=umlLifeline;portConstraint=eastwest;newEdgeStyle={&quot;curved&quot;:0,&quot;rounded&quot;:0};" parent="-2Qa8j6UVPZS23jxc8oc-122" vertex="1">
          <mxGeometry x="120" y="60" width="10" height="340" as="geometry" />
        </mxCell>
        <mxCell id="-2Qa8j6UVPZS23jxc8oc-105" value="Server" style="html=1;whiteSpace=wrap;" parent="-2Qa8j6UVPZS23jxc8oc-122" vertex="1">
          <mxGeometry x="230" y="10" width="110" height="50" as="geometry" />
        </mxCell>
        <mxCell id="-2Qa8j6UVPZS23jxc8oc-106" value="Database" style="html=1;whiteSpace=wrap;" parent="-2Qa8j6UVPZS23jxc8oc-122" vertex="1">
          <mxGeometry x="389" y="10" width="110" height="50" as="geometry" />
        </mxCell>
        <mxCell id="-2Qa8j6UVPZS23jxc8oc-107" value="" style="html=1;points=[[0,0,0,0,5],[0,1,0,0,-5],[1,0,0,0,5],[1,1,0,0,-5]];perimeter=orthogonalPerimeter;outlineConnect=0;targetShapes=umlLifeline;portConstraint=eastwest;newEdgeStyle={&quot;curved&quot;:0,&quot;rounded&quot;:0};" parent="-2Qa8j6UVPZS23jxc8oc-122" vertex="1">
          <mxGeometry x="280" y="60" width="10" height="340" as="geometry" />
        </mxCell>
        <mxCell id="-2Qa8j6UVPZS23jxc8oc-108" value="" style="html=1;points=[[0,0,0,0,5],[0,1,0,0,-5],[1,0,0,0,5],[1,1,0,0,-5]];perimeter=orthogonalPerimeter;outlineConnect=0;targetShapes=umlLifeline;portConstraint=eastwest;newEdgeStyle={&quot;curved&quot;:0,&quot;rounded&quot;:0};" parent="-2Qa8j6UVPZS23jxc8oc-122" vertex="1">
          <mxGeometry x="440" y="60" width="10" height="340" as="geometry" />
        </mxCell>
        <mxCell id="-2Qa8j6UVPZS23jxc8oc-110" value="Запит списку подій" style="html=1;verticalAlign=bottom;startArrow=oval;endArrow=block;startSize=8;curved=0;rounded=0;" parent="-2Qa8j6UVPZS23jxc8oc-122" source="-2Qa8j6UVPZS23jxc8oc-104" target="-2Qa8j6UVPZS23jxc8oc-107" edge="1">
          <mxGeometry x="-0.0667" relative="1" as="geometry">
            <mxPoint x="170" y="125" as="sourcePoint" />
            <mxPoint x="240" y="125" as="targetPoint" />
            <Array as="points">
              <mxPoint x="190" y="100" />
            </Array>
            <mxPoint as="offset" />
          </mxGeometry>
        </mxCell>
        <mxCell id="-2Qa8j6UVPZS23jxc8oc-112" value="Запит списку подій" style="html=1;verticalAlign=bottom;endArrow=block;curved=0;rounded=0;" parent="-2Qa8j6UVPZS23jxc8oc-122" source="-2Qa8j6UVPZS23jxc8oc-107" target="-2Qa8j6UVPZS23jxc8oc-108" edge="1">
          <mxGeometry relative="1" as="geometry">
            <mxPoint x="319" y="125" as="sourcePoint" />
            <mxPoint x="389" y="125" as="targetPoint" />
            <Array as="points">
              <mxPoint x="340" y="120" />
            </Array>
          </mxGeometry>
        </mxCell>
        <mxCell id="-2Qa8j6UVPZS23jxc8oc-113" value="Список подій" style="html=1;verticalAlign=bottom;endArrow=open;dashed=1;endSize=8;curved=0;rounded=0;" parent="-2Qa8j6UVPZS23jxc8oc-122" source="-2Qa8j6UVPZS23jxc8oc-108" target="-2Qa8j6UVPZS23jxc8oc-107" edge="1">
          <mxGeometry relative="1" as="geometry">
            <mxPoint x="319" y="195" as="targetPoint" />
            <mxPoint x="389" y="195" as="sourcePoint" />
            <Array as="points">
              <mxPoint x="360" y="150" />
            </Array>
          </mxGeometry>
        </mxCell>
        <mxCell id="-2Qa8j6UVPZS23jxc8oc-114" value="Відображення подій" style="html=1;verticalAlign=bottom;endArrow=open;dashed=1;endSize=8;curved=0;rounded=0;" parent="-2Qa8j6UVPZS23jxc8oc-122" edge="1">
          <mxGeometry relative="1" as="geometry">
            <mxPoint x="130" y="180" as="targetPoint" />
            <mxPoint x="280" y="180" as="sourcePoint" />
            <Array as="points">
              <mxPoint x="200" y="180" />
            </Array>
          </mxGeometry>
        </mxCell>
        <mxCell id="-2Qa8j6UVPZS23jxc8oc-115" value="Голосування до події" style="html=1;verticalAlign=bottom;startArrow=oval;startFill=1;endArrow=block;startSize=8;curved=0;rounded=0;entryX=0;entryY=0.342;entryDx=0;entryDy=0;entryPerimeter=0;" parent="-2Qa8j6UVPZS23jxc8oc-122" source="-2Qa8j6UVPZS23jxc8oc-104" edge="1">
          <mxGeometry width="60" relative="1" as="geometry">
            <mxPoint x="135.83000000000015" y="239.9999999999999" as="sourcePoint" />
            <mxPoint x="280" y="239.9999999999999" as="targetPoint" />
          </mxGeometry>
        </mxCell>
        <mxCell id="-2Qa8j6UVPZS23jxc8oc-116" value="Перевірка наявності&lt;div&gt;користуваня&lt;/div&gt;" style="html=1;verticalAlign=bottom;startArrow=oval;startFill=1;endArrow=block;startSize=8;curved=0;rounded=0;exitX=1;exitY=0.378;exitDx=0;exitDy=0;exitPerimeter=0;" parent="-2Qa8j6UVPZS23jxc8oc-122" edge="1">
          <mxGeometry width="60" relative="1" as="geometry">
            <mxPoint x="290" y="210" as="sourcePoint" />
            <mxPoint x="440" y="210" as="targetPoint" />
          </mxGeometry>
        </mxCell>
        <mxCell id="-2Qa8j6UVPZS23jxc8oc-117" value="Дані про користувача" style="html=1;verticalAlign=bottom;endArrow=open;dashed=1;endSize=8;curved=0;rounded=0;" parent="-2Qa8j6UVPZS23jxc8oc-122" edge="1">
          <mxGeometry relative="1" as="geometry">
            <mxPoint x="290" y="280" as="targetPoint" />
            <mxPoint x="440" y="280" as="sourcePoint" />
            <Array as="points">
              <mxPoint x="360" y="280" />
            </Array>
          </mxGeometry>
        </mxCell>
        <mxCell id="-2Qa8j6UVPZS23jxc8oc-118" value="Користувача не знайдено" style="html=1;verticalAlign=bottom;endArrow=open;dashed=1;endSize=8;curved=0;rounded=0;" parent="-2Qa8j6UVPZS23jxc8oc-122" edge="1">
          <mxGeometry relative="1" as="geometry">
            <mxPoint x="130" y="310" as="targetPoint" />
            <mxPoint x="280" y="310" as="sourcePoint" />
            <Array as="points">
              <mxPoint x="200" y="310" />
            </Array>
          </mxGeometry>
        </mxCell>
        <mxCell id="-2Qa8j6UVPZS23jxc8oc-119" value="Голосування за&lt;div&gt;новим користувачем&lt;/div&gt;" style="html=1;verticalAlign=bottom;startArrow=oval;startFill=1;endArrow=block;startSize=8;curved=0;rounded=0;" parent="-2Qa8j6UVPZS23jxc8oc-122" edge="1">
          <mxGeometry width="60" relative="1" as="geometry">
            <mxPoint x="130" y="360" as="sourcePoint" />
            <mxPoint x="280" y="360" as="targetPoint" />
          </mxGeometry>
        </mxCell>
        <mxCell id="-2Qa8j6UVPZS23jxc8oc-120" value="Збереження/оновлення&lt;div&gt;даних&lt;/div&gt;" style="html=1;verticalAlign=bottom;startArrow=oval;startFill=1;endArrow=block;startSize=8;curved=0;rounded=0;" parent="-2Qa8j6UVPZS23jxc8oc-122" edge="1">
          <mxGeometry width="60" relative="1" as="geometry">
            <mxPoint x="290" y="380" as="sourcePoint" />
            <mxPoint x="440" y="380" as="targetPoint" />
          </mxGeometry>
        </mxCell>
        <mxCell id="-2Qa8j6UVPZS23jxc8oc-121" value="Activity diagram" style="shape=umlFrame;whiteSpace=wrap;html=1;pointerEvents=0;width=60;height=50;" parent="-2Qa8j6UVPZS23jxc8oc-122" vertex="1">
          <mxGeometry width="510" height="410" as="geometry" />
        </mxCell>
        <mxCell id="-2Qa8j6UVPZS23jxc8oc-123" value="" style="group" parent="1" vertex="1" connectable="0">
          <mxGeometry x="30" y="50" width="560" height="280" as="geometry" />
        </mxCell>
        <mxCell id="iDLWO89y0f_nf_CUgpw0-1" value="" style="rounded=0;whiteSpace=wrap;html=1;" vertex="1" parent="-2Qa8j6UVPZS23jxc8oc-123">
          <mxGeometry width="560" height="280" as="geometry" />
        </mxCell>
        <mxCell id="-2Qa8j6UVPZS23jxc8oc-17" value="User" style="swimlane;fontStyle=0;childLayout=stackLayout;horizontal=1;startSize=26;fillColor=none;horizontalStack=0;resizeParent=1;resizeParentMax=0;resizeLast=0;collapsible=1;marginBottom=0;whiteSpace=wrap;html=1;" parent="-2Qa8j6UVPZS23jxc8oc-123" vertex="1">
          <mxGeometry x="10" y="40" width="140" height="104" as="geometry" />
        </mxCell>
        <mxCell id="-2Qa8j6UVPZS23jxc8oc-18" value="+ id: ObjectID" style="text;strokeColor=none;fillColor=none;align=left;verticalAlign=top;spacingLeft=4;spacingRight=4;overflow=hidden;rotatable=0;points=[[0,0.5],[1,0.5]];portConstraint=eastwest;whiteSpace=wrap;html=1;" parent="-2Qa8j6UVPZS23jxc8oc-17" vertex="1">
          <mxGeometry y="26" width="140" height="26" as="geometry" />
        </mxCell>
        <mxCell id="-2Qa8j6UVPZS23jxc8oc-19" value="+ name: String" style="text;strokeColor=none;fillColor=none;align=left;verticalAlign=top;spacingLeft=4;spacingRight=4;overflow=hidden;rotatable=0;points=[[0,0.5],[1,0.5]];portConstraint=eastwest;whiteSpace=wrap;html=1;" parent="-2Qa8j6UVPZS23jxc8oc-17" vertex="1">
          <mxGeometry y="52" width="140" height="26" as="geometry" />
        </mxCell>
        <mxCell id="-2Qa8j6UVPZS23jxc8oc-20" value="+ email: String" style="text;strokeColor=none;fillColor=none;align=left;verticalAlign=top;spacingLeft=4;spacingRight=4;overflow=hidden;rotatable=0;points=[[0,0.5],[1,0.5]];portConstraint=eastwest;whiteSpace=wrap;html=1;" parent="-2Qa8j6UVPZS23jxc8oc-17" vertex="1">
          <mxGeometry y="78" width="140" height="26" as="geometry" />
        </mxCell>
        <mxCell id="-2Qa8j6UVPZS23jxc8oc-21" value="Event" style="swimlane;fontStyle=0;childLayout=stackLayout;horizontal=1;startSize=26;fillColor=none;horizontalStack=0;resizeParent=1;resizeParentMax=0;resizeLast=0;collapsible=1;marginBottom=0;whiteSpace=wrap;html=1;" parent="-2Qa8j6UVPZS23jxc8oc-123" vertex="1">
          <mxGeometry x="410" y="40" width="140" height="156" as="geometry" />
        </mxCell>
        <mxCell id="-2Qa8j6UVPZS23jxc8oc-22" value="+ id: ObjectID" style="text;strokeColor=none;fillColor=none;align=left;verticalAlign=top;spacingLeft=4;spacingRight=4;overflow=hidden;rotatable=0;points=[[0,0.5],[1,0.5]];portConstraint=eastwest;whiteSpace=wrap;html=1;" parent="-2Qa8j6UVPZS23jxc8oc-21" vertex="1">
          <mxGeometry y="26" width="140" height="26" as="geometry" />
        </mxCell>
        <mxCell id="-2Qa8j6UVPZS23jxc8oc-23" value="+ name: String" style="text;strokeColor=none;fillColor=none;align=left;verticalAlign=top;spacingLeft=4;spacingRight=4;overflow=hidden;rotatable=0;points=[[0,0.5],[1,0.5]];portConstraint=eastwest;whiteSpace=wrap;html=1;" parent="-2Qa8j6UVPZS23jxc8oc-21" vertex="1">
          <mxGeometry y="52" width="140" height="26" as="geometry" />
        </mxCell>
        <mxCell id="-2Qa8j6UVPZS23jxc8oc-24" value="+ description: String" style="text;strokeColor=none;fillColor=none;align=left;verticalAlign=top;spacingLeft=4;spacingRight=4;overflow=hidden;rotatable=0;points=[[0,0.5],[1,0.5]];portConstraint=eastwest;whiteSpace=wrap;html=1;" parent="-2Qa8j6UVPZS23jxc8oc-21" vertex="1">
          <mxGeometry y="78" width="140" height="26" as="geometry" />
        </mxCell>
        <mxCell id="-2Qa8j6UVPZS23jxc8oc-33" value="+ date: Date" style="text;strokeColor=none;fillColor=none;align=left;verticalAlign=top;spacingLeft=4;spacingRight=4;overflow=hidden;rotatable=0;points=[[0,0.5],[1,0.5]];portConstraint=eastwest;whiteSpace=wrap;html=1;" parent="-2Qa8j6UVPZS23jxc8oc-21" vertex="1">
          <mxGeometry y="104" width="140" height="26" as="geometry" />
        </mxCell>
        <mxCell id="-2Qa8j6UVPZS23jxc8oc-34" value="+ category: String" style="text;strokeColor=none;fillColor=none;align=left;verticalAlign=top;spacingLeft=4;spacingRight=4;overflow=hidden;rotatable=0;points=[[0,0.5],[1,0.5]];portConstraint=eastwest;whiteSpace=wrap;html=1;" parent="-2Qa8j6UVPZS23jxc8oc-21" vertex="1">
          <mxGeometry y="130" width="140" height="26" as="geometry" />
        </mxCell>
        <mxCell id="-2Qa8j6UVPZS23jxc8oc-25" value="Vote" style="swimlane;fontStyle=0;childLayout=stackLayout;horizontal=1;startSize=26;fillColor=none;horizontalStack=0;resizeParent=1;resizeParentMax=0;resizeLast=0;collapsible=1;marginBottom=0;whiteSpace=wrap;html=1;" parent="-2Qa8j6UVPZS23jxc8oc-123" vertex="1">
          <mxGeometry x="210" y="40" width="140" height="130" as="geometry" />
        </mxCell>
        <mxCell id="-2Qa8j6UVPZS23jxc8oc-26" value="+ id: ObjectID" style="text;strokeColor=none;fillColor=none;align=left;verticalAlign=top;spacingLeft=4;spacingRight=4;overflow=hidden;rotatable=0;points=[[0,0.5],[1,0.5]];portConstraint=eastwest;whiteSpace=wrap;html=1;" parent="-2Qa8j6UVPZS23jxc8oc-25" vertex="1">
          <mxGeometry y="26" width="140" height="26" as="geometry" />
        </mxCell>
        <mxCell id="-2Qa8j6UVPZS23jxc8oc-27" value="+ user_id: ObjectID" style="text;strokeColor=none;fillColor=none;align=left;verticalAlign=top;spacingLeft=4;spacingRight=4;overflow=hidden;rotatable=0;points=[[0,0.5],[1,0.5]];portConstraint=eastwest;whiteSpace=wrap;html=1;" parent="-2Qa8j6UVPZS23jxc8oc-25" vertex="1">
          <mxGeometry y="52" width="140" height="26" as="geometry" />
        </mxCell>
        <mxCell id="-2Qa8j6UVPZS23jxc8oc-28" value="+ event_id: ObjectID" style="text;strokeColor=none;fillColor=none;align=left;verticalAlign=top;spacingLeft=4;spacingRight=4;overflow=hidden;rotatable=0;points=[[0,0.5],[1,0.5]];portConstraint=eastwest;whiteSpace=wrap;html=1;" parent="-2Qa8j6UVPZS23jxc8oc-25" vertex="1">
          <mxGeometry y="78" width="140" height="26" as="geometry" />
        </mxCell>
        <mxCell id="-2Qa8j6UVPZS23jxc8oc-137" value="+ vote: bool" style="text;strokeColor=none;fillColor=none;align=left;verticalAlign=top;spacingLeft=4;spacingRight=4;overflow=hidden;rotatable=0;points=[[0,0.5],[1,0.5]];portConstraint=eastwest;whiteSpace=wrap;html=1;" parent="-2Qa8j6UVPZS23jxc8oc-25" vertex="1">
          <mxGeometry y="104" width="140" height="26" as="geometry" />
        </mxCell>
        <mxCell id="-2Qa8j6UVPZS23jxc8oc-29" value="Category" style="swimlane;fontStyle=0;childLayout=stackLayout;horizontal=1;startSize=26;fillColor=none;horizontalStack=0;resizeParent=1;resizeParentMax=0;resizeLast=0;collapsible=1;marginBottom=0;whiteSpace=wrap;html=1;" parent="-2Qa8j6UVPZS23jxc8oc-123" vertex="1">
          <mxGeometry x="210" y="190" width="140" height="78" as="geometry" />
        </mxCell>
        <mxCell id="-2Qa8j6UVPZS23jxc8oc-30" value="+ id: ObjectID" style="text;strokeColor=none;fillColor=none;align=left;verticalAlign=top;spacingLeft=4;spacingRight=4;overflow=hidden;rotatable=0;points=[[0,0.5],[1,0.5]];portConstraint=eastwest;whiteSpace=wrap;html=1;" parent="-2Qa8j6UVPZS23jxc8oc-29" vertex="1">
          <mxGeometry y="26" width="140" height="26" as="geometry" />
        </mxCell>
        <mxCell id="-2Qa8j6UVPZS23jxc8oc-31" value="+ name: String" style="text;strokeColor=none;fillColor=none;align=left;verticalAlign=top;spacingLeft=4;spacingRight=4;overflow=hidden;rotatable=0;points=[[0,0.5],[1,0.5]];portConstraint=eastwest;whiteSpace=wrap;html=1;" parent="-2Qa8j6UVPZS23jxc8oc-29" vertex="1">
          <mxGeometry y="52" width="140" height="26" as="geometry" />
        </mxCell>
        <mxCell id="-2Qa8j6UVPZS23jxc8oc-37" style="edgeStyle=orthogonalEdgeStyle;rounded=0;orthogonalLoop=1;jettySize=auto;html=1;startArrow=classic;startFill=1;" parent="-2Qa8j6UVPZS23jxc8oc-123" source="-2Qa8j6UVPZS23jxc8oc-34" target="-2Qa8j6UVPZS23jxc8oc-31" edge="1">
          <mxGeometry relative="1" as="geometry" />
        </mxCell>
        <mxCell id="-2Qa8j6UVPZS23jxc8oc-40" value="N" style="edgeLabel;html=1;align=center;verticalAlign=middle;resizable=0;points=[];" parent="-2Qa8j6UVPZS23jxc8oc-37" vertex="1" connectable="0">
          <mxGeometry x="-0.8103" relative="1" as="geometry">
            <mxPoint x="-8" as="offset" />
          </mxGeometry>
        </mxCell>
        <mxCell id="-2Qa8j6UVPZS23jxc8oc-41" value="N" style="edgeLabel;html=1;align=center;verticalAlign=middle;resizable=0;points=[];" parent="-2Qa8j6UVPZS23jxc8oc-37" vertex="1" connectable="0">
          <mxGeometry x="0.7135" y="-1" relative="1" as="geometry">
            <mxPoint as="offset" />
          </mxGeometry>
        </mxCell>
        <mxCell id="-2Qa8j6UVPZS23jxc8oc-38" style="edgeStyle=orthogonalEdgeStyle;rounded=0;orthogonalLoop=1;jettySize=auto;html=1;startArrow=classic;startFill=1;" parent="-2Qa8j6UVPZS23jxc8oc-123" source="-2Qa8j6UVPZS23jxc8oc-27" target="-2Qa8j6UVPZS23jxc8oc-18" edge="1">
          <mxGeometry relative="1" as="geometry" />
        </mxCell>
        <mxCell id="-2Qa8j6UVPZS23jxc8oc-45" value="N" style="edgeLabel;html=1;align=center;verticalAlign=middle;resizable=0;points=[];" parent="-2Qa8j6UVPZS23jxc8oc-38" vertex="1" connectable="0">
          <mxGeometry x="-0.8306" relative="1" as="geometry">
            <mxPoint x="-12" as="offset" />
          </mxGeometry>
        </mxCell>
        <mxCell id="-2Qa8j6UVPZS23jxc8oc-46" value="N" style="edgeLabel;html=1;align=center;verticalAlign=middle;resizable=0;points=[];" parent="-2Qa8j6UVPZS23jxc8oc-38" vertex="1" connectable="0">
          <mxGeometry x="0.5714" relative="1" as="geometry">
            <mxPoint as="offset" />
          </mxGeometry>
        </mxCell>
        <mxCell id="-2Qa8j6UVPZS23jxc8oc-39" style="edgeStyle=orthogonalEdgeStyle;rounded=0;orthogonalLoop=1;jettySize=auto;html=1;startArrow=classic;startFill=1;" parent="-2Qa8j6UVPZS23jxc8oc-123" source="-2Qa8j6UVPZS23jxc8oc-28" target="-2Qa8j6UVPZS23jxc8oc-22" edge="1">
          <mxGeometry relative="1" as="geometry" />
        </mxCell>
        <mxCell id="-2Qa8j6UVPZS23jxc8oc-42" value="N" style="edgeLabel;html=1;align=center;verticalAlign=middle;resizable=0;points=[];" parent="-2Qa8j6UVPZS23jxc8oc-39" vertex="1" connectable="0">
          <mxGeometry x="0.6913" relative="1" as="geometry">
            <mxPoint as="offset" />
          </mxGeometry>
        </mxCell>
        <mxCell id="-2Qa8j6UVPZS23jxc8oc-43" value="N" style="edgeLabel;html=1;align=center;verticalAlign=middle;resizable=0;points=[];" parent="-2Qa8j6UVPZS23jxc8oc-39" vertex="1" connectable="0">
          <mxGeometry x="-0.841" y="-1" relative="1" as="geometry">
            <mxPoint x="11" as="offset" />
          </mxGeometry>
        </mxCell>
        <mxCell id="-2Qa8j6UVPZS23jxc8oc-50" value="&lt;span style=&quot;text-wrap: nowrap;&quot;&gt;Class diagram&lt;/span&gt;" style="shape=umlFrame;whiteSpace=wrap;html=1;pointerEvents=0;width=100;height=30;fillStyle=solid;" parent="-2Qa8j6UVPZS23jxc8oc-123" vertex="1">
          <mxGeometry width="560" height="280" as="geometry" />
        </mxCell>
        <mxCell id="-2Qa8j6UVPZS23jxc8oc-136" value="" style="group" parent="1" vertex="1" connectable="0">
          <mxGeometry x="30" y="870" width="210" height="390" as="geometry" />
        </mxCell>
        <mxCell id="iDLWO89y0f_nf_CUgpw0-3" value="" style="rounded=0;whiteSpace=wrap;html=1;" vertex="1" parent="-2Qa8j6UVPZS23jxc8oc-136">
          <mxGeometry width="210" height="390" as="geometry" />
        </mxCell>
        <mxCell id="-2Qa8j6UVPZS23jxc8oc-130" style="edgeStyle=orthogonalEdgeStyle;rounded=0;orthogonalLoop=1;jettySize=auto;html=1;" parent="-2Qa8j6UVPZS23jxc8oc-136" source="-2Qa8j6UVPZS23jxc8oc-125" target="-2Qa8j6UVPZS23jxc8oc-126" edge="1">
          <mxGeometry relative="1" as="geometry" />
        </mxCell>
        <mxCell id="-2Qa8j6UVPZS23jxc8oc-125" value="Користувач" style="html=1;whiteSpace=wrap;" parent="-2Qa8j6UVPZS23jxc8oc-136" vertex="1">
          <mxGeometry x="90" y="10" width="110" height="50" as="geometry" />
        </mxCell>
        <mxCell id="-2Qa8j6UVPZS23jxc8oc-131" style="edgeStyle=orthogonalEdgeStyle;rounded=0;orthogonalLoop=1;jettySize=auto;html=1;" parent="-2Qa8j6UVPZS23jxc8oc-136" source="-2Qa8j6UVPZS23jxc8oc-126" target="-2Qa8j6UVPZS23jxc8oc-127" edge="1">
          <mxGeometry relative="1" as="geometry" />
        </mxCell>
        <mxCell id="-2Qa8j6UVPZS23jxc8oc-126" value="Голосування на подію" style="html=1;whiteSpace=wrap;" parent="-2Qa8j6UVPZS23jxc8oc-136" vertex="1">
          <mxGeometry x="90" y="90" width="110" height="50" as="geometry" />
        </mxCell>
        <mxCell id="-2Qa8j6UVPZS23jxc8oc-133" style="edgeStyle=orthogonalEdgeStyle;rounded=0;orthogonalLoop=1;jettySize=auto;html=1;" parent="-2Qa8j6UVPZS23jxc8oc-136" source="-2Qa8j6UVPZS23jxc8oc-127" target="-2Qa8j6UVPZS23jxc8oc-128" edge="1">
          <mxGeometry relative="1" as="geometry" />
        </mxCell>
        <mxCell id="-2Qa8j6UVPZS23jxc8oc-127" value="Відправка нагадування про запис" style="html=1;whiteSpace=wrap;" parent="-2Qa8j6UVPZS23jxc8oc-136" vertex="1">
          <mxGeometry x="90" y="169" width="110" height="50" as="geometry" />
        </mxCell>
        <mxCell id="-2Qa8j6UVPZS23jxc8oc-134" style="edgeStyle=orthogonalEdgeStyle;rounded=0;orthogonalLoop=1;jettySize=auto;html=1;" parent="-2Qa8j6UVPZS23jxc8oc-136" source="-2Qa8j6UVPZS23jxc8oc-128" target="-2Qa8j6UVPZS23jxc8oc-129" edge="1">
          <mxGeometry relative="1" as="geometry" />
        </mxCell>
        <mxCell id="-2Qa8j6UVPZS23jxc8oc-128" value="Чекати до часу за годину до події" style="html=1;whiteSpace=wrap;" parent="-2Qa8j6UVPZS23jxc8oc-136" vertex="1">
          <mxGeometry x="90" y="250" width="110" height="50" as="geometry" />
        </mxCell>
        <mxCell id="-2Qa8j6UVPZS23jxc8oc-129" value="Відправка нагадування про запис" style="html=1;whiteSpace=wrap;" parent="-2Qa8j6UVPZS23jxc8oc-136" vertex="1">
          <mxGeometry x="90" y="330" width="110" height="50" as="geometry" />
        </mxCell>
        <mxCell id="-2Qa8j6UVPZS23jxc8oc-135" value="Component diagram" style="shape=umlFrame;whiteSpace=wrap;html=1;pointerEvents=0;width=70;height=50;" parent="-2Qa8j6UVPZS23jxc8oc-136" vertex="1">
          <mxGeometry width="210" height="390" as="geometry" />
        </mxCell>
      </root>
    </mxGraphModel>
  </diagram>
</mxfile>
